<mxfile host="app.diagrams.net" modified="2024-05-04T15:09:54.900Z" agent="Mozilla/5.0 (Windows NT 10.0; Win64; x64) AppleWebKit/537.36 (KHTML, like Gecko) Chrome/124.0.0.0 Safari/537.36" etag="47s9TVid8xbp_0nUJwCc" version="24.3.1" type="device">
  <diagram name="페이지-1" id="2h4Shpq2PdpCUW9WNk5L">
    <mxGraphModel dx="660" dy="943" grid="1" gridSize="10" guides="1" tooltips="1" connect="1" arrows="1" fold="1" page="1" pageScale="1" pageWidth="827" pageHeight="1169" math="0" shadow="0">
      <root>
        <mxCell id="0" />
        <mxCell id="1" parent="0" />
        <mxCell id="FxVjaIn9BYIa8_suqV6E-1" value="&lt;font style=&quot;font-size: 18px;&quot;&gt;가장 가까운 크리처의 반대 방향으로 이동&lt;/font&gt;" style="ellipse;whiteSpace=wrap;html=1;aspect=fixed;" vertex="1" parent="1">
          <mxGeometry x="10" y="210" width="190" height="190" as="geometry" />
        </mxCell>
        <mxCell id="FxVjaIn9BYIa8_suqV6E-2" value="&lt;font style=&quot;font-size: 18px;&quot;&gt;투사체가 날아오는&amp;nbsp;&lt;/font&gt;&lt;div&gt;&lt;font style=&quot;font-size: 18px;&quot;&gt;방향의 수직으로 이동&lt;/font&gt;&lt;/div&gt;" style="ellipse;whiteSpace=wrap;html=1;aspect=fixed;" vertex="1" parent="1">
          <mxGeometry x="520" y="210" width="190" height="190" as="geometry" />
        </mxCell>
        <mxCell id="FxVjaIn9BYIa8_suqV6E-6" value="투사체가 날아올 시" style="text;html=1;align=center;verticalAlign=middle;resizable=0;points=[];autosize=1;strokeColor=none;fillColor=none;fontSize=14;" vertex="1" parent="1">
          <mxGeometry x="290" y="260" width="140" height="30" as="geometry" />
        </mxCell>
        <mxCell id="FxVjaIn9BYIa8_suqV6E-10" value="" style="endArrow=classic;html=1;rounded=0;" edge="1" parent="1">
          <mxGeometry width="50" height="50" relative="1" as="geometry">
            <mxPoint x="240" y="290" as="sourcePoint" />
            <mxPoint x="480" y="290" as="targetPoint" />
          </mxGeometry>
        </mxCell>
        <mxCell id="FxVjaIn9BYIa8_suqV6E-11" value="" style="endArrow=classic;html=1;rounded=0;" edge="1" parent="1">
          <mxGeometry width="50" height="50" relative="1" as="geometry">
            <mxPoint x="480" y="314.5" as="sourcePoint" />
            <mxPoint x="240" y="314.5" as="targetPoint" />
          </mxGeometry>
        </mxCell>
        <mxCell id="FxVjaIn9BYIa8_suqV6E-12" value="수직으로 일정 거리 이동 후" style="text;html=1;align=center;verticalAlign=middle;resizable=0;points=[];autosize=1;strokeColor=none;fillColor=none;fontSize=14;" vertex="1" parent="1">
          <mxGeometry x="265" y="320" width="190" height="30" as="geometry" />
        </mxCell>
        <mxCell id="FxVjaIn9BYIa8_suqV6E-13" value="&lt;span style=&quot;font-size: 18px;&quot;&gt;돌진해 오는&amp;nbsp;&lt;/span&gt;&lt;span style=&quot;font-size: 18px; background-color: initial;&quot;&gt;방향의&amp;nbsp;&lt;/span&gt;&lt;div&gt;&lt;span style=&quot;font-size: 18px;&quot;&gt;수직으로 이동&lt;/span&gt;&lt;/div&gt;" style="ellipse;whiteSpace=wrap;html=1;aspect=fixed;" vertex="1" parent="1">
          <mxGeometry x="265" y="570" width="190" height="190" as="geometry" />
        </mxCell>
        <mxCell id="FxVjaIn9BYIa8_suqV6E-14" value="" style="endArrow=classic;html=1;rounded=0;" edge="1" parent="1">
          <mxGeometry width="50" height="50" relative="1" as="geometry">
            <mxPoint x="165" y="410" as="sourcePoint" />
            <mxPoint x="265" y="570" as="targetPoint" />
          </mxGeometry>
        </mxCell>
        <mxCell id="FxVjaIn9BYIa8_suqV6E-15" value="미라가 돌진해올 시&amp;nbsp;" style="text;html=1;align=center;verticalAlign=middle;resizable=0;points=[];autosize=1;strokeColor=none;fillColor=none;rotation=58;" vertex="1" parent="1">
          <mxGeometry x="135" y="480" width="130" height="30" as="geometry" />
        </mxCell>
        <mxCell id="FxVjaIn9BYIa8_suqV6E-16" value="" style="endArrow=classic;html=1;rounded=0;" edge="1" parent="1">
          <mxGeometry width="50" height="50" relative="1" as="geometry">
            <mxPoint x="280" y="560" as="sourcePoint" />
            <mxPoint x="180" y="400" as="targetPoint" />
          </mxGeometry>
        </mxCell>
        <mxCell id="FxVjaIn9BYIa8_suqV6E-17" value="수직으로 일정 거리 이동 후" style="text;html=1;align=center;verticalAlign=middle;resizable=0;points=[];autosize=1;strokeColor=none;fillColor=none;rotation=58;" vertex="1" parent="1">
          <mxGeometry x="160" y="450" width="170" height="30" as="geometry" />
        </mxCell>
        <mxCell id="FxVjaIn9BYIa8_suqV6E-19" value="" style="endArrow=classic;html=1;rounded=0;" edge="1" parent="1">
          <mxGeometry width="50" height="50" relative="1" as="geometry">
            <mxPoint x="440" y="560" as="sourcePoint" />
            <mxPoint x="530" y="400" as="targetPoint" />
          </mxGeometry>
        </mxCell>
        <mxCell id="FxVjaIn9BYIa8_suqV6E-20" value="미라가 돌진해올 시" style="text;html=1;align=center;verticalAlign=middle;resizable=0;points=[];autosize=1;strokeColor=none;fillColor=none;rotation=299;" vertex="1" parent="1">
          <mxGeometry x="455" y="490" width="130" height="30" as="geometry" />
        </mxCell>
        <mxCell id="FxVjaIn9BYIa8_suqV6E-21" value="" style="endArrow=classic;html=1;rounded=0;" edge="1" parent="1">
          <mxGeometry width="50" height="50" relative="1" as="geometry">
            <mxPoint x="550" y="410" as="sourcePoint" />
            <mxPoint x="460" y="570" as="targetPoint" />
          </mxGeometry>
        </mxCell>
        <mxCell id="FxVjaIn9BYIa8_suqV6E-29" value="투사체가 날아올 시" style="text;html=1;align=center;verticalAlign=middle;resizable=0;points=[];autosize=1;strokeColor=none;fillColor=none;rotation=299;" vertex="1" parent="1">
          <mxGeometry x="400" y="460" width="130" height="30" as="geometry" />
        </mxCell>
      </root>
    </mxGraphModel>
  </diagram>
</mxfile>
